<?xml version="1.0" standalone="no"?>
<!DOCTYPE svg PUBLIC "-//W3C//DTD SVG 20010904//EN"
 "http://www.w3.org/TR/2001/REC-SVG-20010904/DTD/svg10.dtd">
<svg version="1.0" xmlns="http://www.w3.org/2000/svg"
 width="512.000000pt" height="512.000000pt" viewBox="0 0 512.000000 512.000000"
 preserveAspectRatio="xMidYMid meet">
<metadata>
Created by potrace 1.16, written by Peter Selinger 2001-2019
</metadata>
<g transform="translate(0.000000,512.000000) scale(0.100000,-0.100000)"
fill="#000000" stroke="none">
<path d="M2320 4709 c-137 -16 -293 -51 -443 -100 -639 -209 -1145 -709 -1365
-1349 -66 -193 -103 -384 -117 -613 -10 -162 -16 -157 189 -157 143 0 165 2
178 18 11 12 18 51 22 132 53 876 706 1571 1576 1679 400 50 842 -57 1185
-287 148 -100 146 -76 21 -201 -104 -104 -107 -109 -104 -147 2 -30 9 -41 28
-50 16 -7 170 -16 409 -24 466 -14 424 -29 422 146 -1 66 -6 232 -11 369 -5
138 -10 262 -10 278 0 35 -32 67 -67 67 -20 0 -55 -28 -153 -125 l-127 -126
-90 68 c-314 235 -681 380 -1075 422 -112 13 -358 12 -468 0z m511 -135 c350
-48 715 -202 981 -414 l47 -37 -44 -43 -45 -44 -32 25 c-236 176 -511 303
-778 359 -874 181 -1744 -251 -2126 -1055 -100 -211 -154 -418 -179 -687 l-7
-68 -62 0 -61 0 7 111 c38 552 340 1108 788 1449 285 217 640 364 985 409 118
15 404 12 526 -5z m1354 -587 l7 -258 -153 6 c-85 3 -201 8 -258 11 l-104 6
249 249 c136 136 249 247 250 246 1 -1 5 -118 9 -260z"/>
<path d="M4357 2592 c-11 -12 -17 -36 -17 -64 0 -78 -20 -249 -40 -343 -33
-152 -80 -283 -157 -435 -108 -217 -252 -401 -428 -548 -640 -537 -1520 -571
-2197 -84 -43 30 -78 58 -78 61 0 4 50 56 110 116 93 93 110 114 110 141 0 62
4 62 -432 75 -326 11 -399 10 -412 0 -13 -11 -16 -36 -16 -135 0 -151 18 -654
25 -682 4 -19 42 -44 67 -44 6 0 69 57 139 126 l128 127 63 -50 c285 -226 647
-381 1030 -439 155 -24 461 -24 618 0 479 72 890 277 1223 611 169 169 292
339 401 553 138 273 205 520 226 836 15 208 26 196 -184 196 -145 0 -165 -2
-179 -18z m231 -204 c-56 -756 -560 -1438 -1273 -1721 -619 -246 -1322 -173
-1873 193 -64 43 -133 92 -152 108 l-35 31 42 42 43 43 27 -22 c88 -70 265
-179 373 -230 192 -92 375 -146 580 -173 129 -16 381 -14 514 5 738 107 1353
643 1561 1361 27 92 60 278 70 398 l7 67 62 0 62 0 -8 -102z m-3148 -1015 c2
-2 -108 -116 -245 -253 -137 -137 -250 -248 -251 -247 -1 1 -5 118 -9 260 l-7
259 253 -7 c140 -4 256 -9 259 -12z"/>
</g>
</svg>
