<?xml version="1.0" standalone="no"?>
<!DOCTYPE svg PUBLIC "-//W3C//DTD SVG 20010904//EN"
 "http://www.w3.org/TR/2001/REC-SVG-20010904/DTD/svg10.dtd">
<svg version="1.0" xmlns="http://www.w3.org/2000/svg"
 width="512.000000pt" height="512.000000pt" viewBox="0 0 512.000000 512.000000"
 preserveAspectRatio="xMidYMid meet">
<metadata>
Created by potrace 1.16, written by Peter Selinger 2001-2019
</metadata>
<g transform="translate(0.000000,512.000000) scale(0.100000,-0.100000)"
fill="#000000" stroke="none">
<path d="M651 4704 c-94 -34 -171 -102 -218 -194 -27 -54 -28 -60 -30 -234
l-3 -179 -57 -23 c-155 -63 -273 -192 -323 -353 -20 -62 -20 -94 -20 -1460 0
-1250 2 -1403 16 -1452 53 -181 202 -328 389 -386 57 -17 119 -18 1110 -18
l1050 0 0 200 0 200 -103 7 c-682 45 -1247 572 -1341 1252 -14 99 -14 293 0
392 48 347 236 690 496 907 251 208 535 325 845 345 l103 7 0 500 0 500 -245
3 c-147 2 -272 -2 -312 -8 -126 -21 -248 -101 -316 -207 -17 -27 -56 -123 -88
-215 l-56 -168 -113 0 -113 0 -4 168 c-3 160 -4 169 -31 222 -37 72 -105 141
-176 176 -55 28 -60 29 -236 31 -144 2 -189 0 -224 -13z m275 -1221 c67 -32
92 -119 55 -191 -32 -64 -64 -72 -271 -72 -207 0 -239 8 -271 72 -36 71 -13
154 52 189 50 27 380 28 435 2z"/>
<path d="M2565 3349 c-3 -8 -4 -502 -3 -1099 l3 -1085 85 2 c159 4 363 74 519
177 218 145 387 382 457 641 25 91 28 116 28 275 0 159 -3 184 -28 275 -105
388 -413 694 -793 791 -123 31 -260 43 -268 23z"/>
</g>
</svg>
