<?xml version="1.0" standalone="no"?>
<!DOCTYPE svg PUBLIC "-//W3C//DTD SVG 20010904//EN"
 "http://www.w3.org/TR/2001/REC-SVG-20010904/DTD/svg10.dtd">
<svg version="1.0" xmlns="http://www.w3.org/2000/svg"
 width="512.000000pt" height="512.000000pt" viewBox="0 0 512.000000 512.000000"
 preserveAspectRatio="xMidYMid meet">

<g transform="translate(0.000000,512.000000) scale(0.100000,-0.100000)"
fill="#000000" stroke="none">
<path d="M694 4710 c-109 -23 -207 -103 -258 -210 -31 -65 -31 -65 -31 -237 0
-143 -2 -173 -14 -173 -8 0 -48 -17 -89 -37 -142 -70 -260 -221 -292 -373 -8
-40 -10 -431 -8 -1450 l3 -1395 23 -60 c49 -130 157 -252 276 -310 116 -57 73
-55 1214 -55 l1052 0 -2 198 -3 197 -103 7 c-682 45 -1247 572 -1341 1252 -14
99 -14 293 0 392 48 347 236 690 496 907 251 208 535 325 845 345 l103 7 3
498 2 497 -284 0 c-251 0 -291 -2 -345 -19 -113 -35 -215 -120 -266 -221 -12
-25 -46 -116 -74 -202 l-53 -158 -116 0 -117 0 0 163 c0 160 0 163 -31 227
-39 83 -102 145 -184 184 -62 29 -71 30 -215 33 -82 1 -169 -2 -191 -7z m232
-1227 c67 -32 92 -119 55 -191 -32 -64 -64 -72 -271 -72 -207 0 -239 8 -271
72 -36 71 -13 154 52 189 50 27 380 28 435 2z"/>
<path d="M2565 3349 c-3 -8 -4 -502 -3 -1099 l3 -1085 85 2 c159 4 363 74 519
177 218 145 387 382 457 641 25 91 28 116 28 275 0 159 -3 184 -28 275 -105
388 -413 694 -793 791 -123 31 -260 43 -268 23z"/>
</g>
</svg>
