<?xml version="1.0" standalone="no"?>
<!DOCTYPE svg PUBLIC "-//W3C//DTD SVG 20010904//EN"
 "http://www.w3.org/TR/2001/REC-SVG-20010904/DTD/svg10.dtd">
<svg version="1.0" xmlns="http://www.w3.org/2000/svg"
 width="512.000000pt" height="512.000000pt" viewBox="0 0 512.000000 512.000000"
 preserveAspectRatio="xMidYMid meet">
<metadata>
Created by potrace 1.16, written by Peter Selinger 2001-2019
</metadata>
<g transform="translate(0.000000,512.000000) scale(0.100000,-0.100000)"
fill="#000000" stroke="none">
<path d="M651 4704 c-94 -34 -171 -102 -218 -194 -27 -54 -28 -60 -30 -234
l-3 -179 -57 -23 c-155 -63 -273 -192 -323 -353 -20 -62 -20 -94 -20 -1460 0
-1250 2 -1403 16 -1452 52 -178 196 -323 384 -386 53 -17 144 -18 2132 -21
1796 -2 2087 0 2148 12 189 40 352 182 416 365 l24 66 0 1415 0 1415 -24 66
c-56 160 -207 308 -356 350 -25 7 -49 16 -53 19 -5 4 21 67 58 140 36 73 65
133 63 134 -2 2 -145 -57 -318 -130 l-315 -134 -155 0 -155 0 -105 145 -104
145 -67 -66 -67 -66 -17 53 c-52 158 -131 267 -240 329 -100 57 -131 60 -696
60 -554 0 -598 -4 -696 -53 -63 -33 -143 -104 -181 -164 -17 -27 -56 -123 -88
-215 l-56 -168 -113 0 -113 0 -4 168 c-3 160 -4 169 -31 222 -37 72 -105 141
-176 176 -55 28 -60 29 -236 31 -144 2 -189 0 -224 -13z m2254 -418 l400 -246
170 170 c94 94 173 170 176 170 3 0 68 -85 144 -189 123 -169 140 -189 159
-181 11 5 198 83 415 174 217 91 397 164 400 161 3 -4 -76 -169 -176 -368
l-181 -363 297 -104 c163 -57 312 -110 331 -118 l35 -14 -302 -152 -302 -151
91 -208 c50 -114 88 -211 84 -214 -4 -4 -125 -9 -270 -11 l-262 -4 -53 -277
c-106 -551 -149 -681 -302 -912 -85 -127 -264 -307 -389 -389 -218 -143 -396
-208 -655 -240 -765 -95 -1486 467 -1594 1244 -14 99 -14 293 0 392 48 347
235 689 496 907 221 184 482 301 749 336 122 16 315 17 298 2 -5 -5 -102 -39
-217 -77 l-207 -69 102 -102 c100 -100 102 -103 71 -103 -60 0 -229 -51 -329
-100 -292 -142 -503 -397 -590 -715 -25 -91 -28 -115 -28 -275 0 -159 3 -184
28 -275 85 -316 307 -582 597 -720 297 -140 650 -139 945 5 362 176 597 526
622 926 l7 112 158 -140 c87 -77 160 -138 163 -135 3 2 -64 65 -148 139 -84
74 -160 141 -168 149 -90 85 -182 160 -193 156 -6 -3 -160 -107 -342 -231
-183 -125 -331 -220 -333 -213 -1 6 18 161 42 342 24 182 44 331 43 331 -1 1
-119 -4 -262 -11 -143 -7 -336 -16 -430 -20 l-170 -6 35 32 c19 18 151 138
293 268 l258 235 -172 172 c-94 94 -167 174 -163 176 5 3 115 40 244 83 129
42 236 79 238 80 3 3 -248 740 -276 814 -4 10 -1 13 9 9 8 -3 194 -116 414
-252z m-1979 -803 c67 -32 92 -119 55 -191 -32 -64 -64 -72 -271 -72 -207 0
-239 8 -271 72 -36 71 -13 154 52 189 50 27 380 28 435 2z"/>
</g>
</svg>
