<?xml version="1.0" standalone="no"?>
<!DOCTYPE svg PUBLIC "-//W3C//DTD SVG 20010904//EN"
 "http://www.w3.org/TR/2001/REC-SVG-20010904/DTD/svg10.dtd">
<svg version="1.0" xmlns="http://www.w3.org/2000/svg"
 width="512.000000pt" height="512.000000pt" viewBox="0 0 512.000000 512.000000"
 preserveAspectRatio="xMidYMid meet">

<g transform="translate(0.000000,512.000000) scale(0.100000,-0.100000)"
fill="#000000" stroke="none">
<path d="M694 4710 c-109 -23 -207 -103 -258 -210 -31 -65 -31 -65 -31 -237 0
-143 -2 -173 -14 -173 -8 0 -48 -17 -89 -37 -142 -70 -260 -221 -292 -373 -8
-40 -10 -431 -8 -1450 l3 -1395 23 -60 c64 -171 210 -304 383 -350 82 -22
4194 -22 4287 0 98 23 179 70 258 149 79 79 126 160 149 258 22 94 22 2762 0
2856 -44 186 -210 358 -389 403 -25 6 -46 13 -46 15 0 3 30 63 66 135 36 72
64 132 62 134 -2 1 -145 -58 -318 -131 l-315 -133 -146 -1 c-170 0 -140 -18
-274 168 -49 67 -91 122 -95 122 -3 0 -35 -29 -70 -65 l-65 -65 -31 94 c-55
162 -123 244 -260 308 l-69 33 -570 3 c-508 3 -577 1 -633 -14 -114 -30 -224
-119 -276 -224 -13 -25 -47 -116 -75 -202 l-53 -158 -116 0 -117 0 0 163 c0
160 0 163 -31 227 -39 83 -102 145 -184 184 -62 29 -71 30 -215 33 -82 1 -169
-2 -191 -7z m2211 -424 l400 -246 175 174 175 174 100 -139 c161 -226 176
-244 188 -241 7 2 138 56 292 122 451 191 540 228 543 225 2 -2 -80 -169 -181
-372 l-185 -369 297 -104 c163 -57 312 -110 331 -118 l35 -14 -302 -152 -302
-151 91 -208 c50 -114 88 -211 84 -214 -4 -4 -125 -9 -270 -11 l-262 -4 -53
-277 c-106 -551 -149 -681 -302 -912 -85 -127 -264 -307 -389 -389 -218 -143
-396 -208 -655 -240 -765 -95 -1486 467 -1594 1244 -14 99 -14 293 0 392 48
347 235 689 496 907 221 184 482 301 749 336 122 16 315 17 298 2 -5 -5 -102
-39 -217 -77 l-207 -69 102 -102 c100 -100 102 -103 71 -103 -60 0 -229 -51
-329 -100 -292 -142 -503 -397 -590 -715 -25 -91 -28 -115 -28 -275 0 -159 3
-184 28 -275 85 -316 307 -582 597 -720 297 -140 650 -139 945 5 362 176 597
526 622 926 l7 112 158 -140 c87 -77 160 -138 163 -135 3 2 -64 65 -148 139
-84 74 -160 141 -168 149 -90 85 -182 160 -193 156 -6 -3 -160 -107 -342 -231
-183 -125 -331 -220 -333 -213 -1 6 18 161 42 342 24 182 44 331 43 331 -1 1
-119 -4 -262 -11 -143 -7 -336 -16 -430 -20 l-170 -6 35 32 c19 18 151 138
293 268 l258 235 -172 172 c-94 94 -167 174 -163 176 5 3 115 40 244 83 129
42 236 79 238 80 3 3 -248 740 -276 814 -4 10 -1 13 9 9 8 -3 194 -116 414
-252z m-1979 -803 c67 -32 92 -119 55 -191 -32 -64 -64 -72 -271 -72 -207 0
-239 8 -271 72 -36 71 -13 154 52 189 50 27 380 28 435 2z"/>
</g>
</svg>
