<?xml version="1.0" standalone="no"?>
<!DOCTYPE svg PUBLIC "-//W3C//DTD SVG 20010904//EN"
 "http://www.w3.org/TR/2001/REC-SVG-20010904/DTD/svg10.dtd">
<svg version="1.0" xmlns="http://www.w3.org/2000/svg"
 width="512.000000pt" height="512.000000pt" viewBox="0 0 512.000000 512.000000"
 preserveAspectRatio="xMidYMid meet">

<g transform="translate(0.000000,512.000000) scale(0.100000,-0.100000)"
fill="#000000" stroke="none">
<path d="M653 4696 c-89 -29 -176 -107 -216 -194 -19 -42 -22 -68 -25 -226
l-4 -179 39 6 c21 4 224 7 451 7 l414 0 -4 173 c-3 164 -4 175 -31 228 -32 67
-109 142 -175 172 -42 20 -66 22 -227 24 -129 2 -192 -1 -222 -11z"/>
<path d="M2560 4216 l0 -494 83 -7 c437 -35 802 -228 1062 -560 209 -267 309
-557 309 -895 -1 -401 -154 -763 -441 -1041 -256 -249 -559 -384 -930 -414
l-83 -7 0 -194 0 -194 1049 0 1050 0 80 25 c166 53 303 190 356 356 l25 80 0
1389 0 1389 -25 80 c-53 166 -190 303 -356 356 l-80 25 -544 0 -543 0 -53 158
c-28 86 -62 177 -74 202 -51 101 -153 186 -266 221 -54 17 -94 19 -340 19
l-279 0 0 -494z m1969 -734 c19 -10 43 -34 53 -53 36 -68 12 -156 -53 -191
-68 -36 -156 -12 -191 53 -36 68 -12 156 53 191 18 10 50 18 69 18 19 0 51 -8
69 -18z"/>
<path d="M2395 3346 c-233 -37 -444 -144 -610 -311 -431 -430 -430 -1120 0
-1551 186 -186 426 -296 698 -320 l77 -7 0 1102 0 1101 -42 -1 c-24 -1 -79 -7
-123 -13z"/>
</g>
</svg>
